<?xml version="1.0" standalone="no"?>
<!DOCTYPE svg PUBLIC "-//W3C//DTD SVG 20010904//EN"
 "http://www.w3.org/TR/2001/REC-SVG-20010904/DTD/svg10.dtd">
<svg version="1.0" xmlns="http://www.w3.org/2000/svg"
 width="612.000000pt" height="633.000000pt" viewBox="0 0 612.000000 633.000000"
 preserveAspectRatio="xMidYMid meet">

<g transform="translate(0.000000,633.000000) scale(0.100000,-0.100000)"
fill="#000000" stroke="none">
<path d="M2950 5659 c-229 -23 -404 -79 -435 -139 -13 -25 -15 -126 -15 -712
l0 -683 -266 265 c-158 157 -272 279 -281 300 -9 19 -19 89 -24 162 -7 117
-11 134 -41 191 -49 92 -138 176 -240 227 -93 46 -144 55 -161 29 -8 -13 7
-48 72 -168 91 -166 90 -164 39 -241 -56 -85 -128 -120 -245 -120 -89 0 -86
-3 -192 170 -81 133 -103 150 -128 100 -22 -42 -17 -252 8 -340 45 -165 123
-236 314 -286 49 -13 128 -43 175 -66 78 -38 100 -57 285 -239 110 -109 197
-200 194 -204 -4 -3 -148 -12 -320 -20 -698 -32 -807 -37 -879 -45 -41 -4
1052 -8 2429 -9 1377 0 2502 1 2500 4 -5 4 -347 22 -948 50 -178 8 -325 16
-327 18 -2 2 87 95 197 206 186 186 208 205 283 241 45 22 122 50 171 63 120
33 152 47 205 95 94 83 134 200 134 389 -1 98 -4 126 -18 148 -10 15 -25 25
-34 23 -9 -2 -53 -63 -98 -136 -45 -72 -87 -139 -94 -147 -16 -19 -144 -21
-202 -3 -54 16 -129 85 -156 144 l-23 49 81 148 c44 81 80 154 80 161 0 8 -7
19 -16 26 -36 31 -201 -52 -304 -154 -88 -86 -118 -154 -126 -281 -11 -202 12
-164 -299 -475 l-275 -275 0 693 0 693 -25 25 c-59 59 -208 100 -439 123 -126
13 -431 12 -556 0z m495 -49 c90 -6 82 -7 -90 -8 -360 -4 -648 -53 -710 -122
-15 -17 -19 -81 -31 -567 -8 -301 -16 -552 -18 -558 -3 -5 -5 245 -5 556 l-1
566 23 20 c34 31 58 41 165 67 180 44 447 62 667 46z m163 -17 c-10 -2 -28 -2
-40 0 -13 2 -5 4 17 4 22 1 32 -1 23 -4z m61 -42 c40 -12 90 -31 110 -42 l36
-20 -35 5 c-19 3 -100 10 -179 16 -135 10 -276 6 -631 -15 -109 -7 -105 3 10
30 197 45 281 54 450 51 131 -3 180 -8 239 -25z m-812 -178 c-2 -16 -4 -5 -4
22 0 28 2 40 4 28 2 -13 2 -35 0 -50z m61 20 c-2 -27 -7 -48 -13 -48 -5 0 -11
21 -13 48 -3 38 0 47 13 47 13 0 16 -9 13 -47z m67 -3 c0 -35 -4 -45 -17 -48
-15 -3 -18 4 -18 48 0 44 3 51 18 48 13 -3 17 -13 17 -48z m75 -1 c0 -43 -3
-50 -17 -47 -14 2 -19 15 -21 51 -3 42 -1 47 17 47 18 0 21 -6 21 -51z m848 4
l-3 -48 -400 0 -400 0 -3 33 c-6 66 -32 62 408 62 l401 0 -3 -47z m-1051 -180
c-2 -16 -4 -3 -4 27 0 30 2 43 4 28 2 -16 2 -40 0 -55z m63 27 c0 -38 -4 -50
-15 -50 -11 0 -15 12 -15 50 0 38 4 50 15 50 11 0 15 -12 15 -50z m65 0 c0
-35 -4 -45 -17 -48 -15 -3 -18 4 -18 48 0 44 3 51 18 48 13 -3 17 -13 17 -48z
m75 0 c0 -43 -3 -50 -20 -50 -17 0 -20 7 -20 43 0 46 5 57 27 57 9 0 13 -15
13 -50z m845 0 l0 -45 -400 0 -400 0 -3 33 c-7 66 -32 62 405 60 l398 -3 0
-45z m-2166 -76 c94 -72 137 -158 147 -292 6 -91 -10 -80 -20 13 -11 108 -74
206 -196 309 -43 36 -44 37 -10 20 19 -9 55 -32 79 -50z m3029 -4 c-41 -38
-89 -91 -106 -117 -33 -51 -62 -145 -62 -200 0 -18 -4 -33 -10 -33 -12 0 -12
5 0 98 17 131 65 205 184 283 33 22 61 39 64 39 3 0 -28 -31 -70 -70z m-3063
-236 c-83 -220 -271 -312 -446 -218 -47 25 -58 38 -86 94 -33 67 -54 120 -49
120 2 0 28 -37 57 -82 60 -91 93 -112 191 -124 82 -10 149 16 213 80 49 50
105 147 105 183 0 10 -23 54 -50 98 -28 44 -50 84 -50 89 0 5 31 -32 70 -83
l69 -93 -24 -64z m3156 199 c-15 -27 -40 -67 -54 -90 -34 -54 -34 -63 4 -132
69 -130 146 -185 259 -185 36 0 88 7 115 17 46 16 54 24 104 102 30 47 56 83
58 81 2 -2 -14 -42 -35 -88 -43 -93 -72 -121 -149 -144 -157 -47 -299 28 -379
200 -19 41 -34 84 -34 95 0 11 16 41 36 68 103 135 122 154 75 76z m-2004 -70
c-2 -16 -4 -3 -4 27 0 30 2 43 4 28 2 -16 2 -40 0 -55z m63 27 c0 -38 -4 -50
-15 -50 -11 0 -15 12 -15 50 0 38 4 50 15 50 11 0 15 -12 15 -50z m65 0 c0
-35 -4 -45 -17 -48 -15 -3 -18 4 -18 48 0 44 3 51 18 48 13 -3 17 -13 17 -48z
m75 -1 c0 -43 -3 -50 -17 -47 -14 2 -19 15 -21 51 -3 42 -1 47 17 47 18 0 21
-6 21 -51z m848 4 l-3 -48 -400 0 -400 0 -3 33 c-6 66 -32 62 408 62 l401 0
-3 -47z m-8 -558 c0 -256 -2 -465 -4 -465 -3 0 -22 32 -42 71 -59 111 -15 104
-609 104 -470 0 -513 -1 -542 -18 l-33 -18 0 29 c0 15 16 84 35 153 45 163 56
246 44 334 -24 180 -24 198 5 232 15 17 37 34 49 36 12 2 264 5 560 6 l537 1
0 -465z m1506 225 c-23 -107 -77 -198 -139 -232 -10 -5 0 9 23 32 50 50 93
140 111 230 7 35 14 60 16 54 2 -6 -3 -44 -11 -84z m-4291 -104 c14 -30 44
-73 66 -96 22 -23 32 -37 21 -31 -61 32 -130 154 -137 243 l-5 53 15 -58 c8
-32 26 -82 40 -111z m755 -46 c11 -7 0 -10 -37 -10 -43 0 -59 -6 -94 -32 -51
-40 -79 -90 -79 -141 0 -23 -4 -36 -10 -32 -30 18 3 126 52 172 51 48 130 68
168 43z m2843 -4 c39 -17 92 -71 106 -109 14 -36 14 -94 1 -102 -6 -4 -10 8
-10 29 0 46 -16 85 -48 119 -39 41 -74 57 -129 57 -35 0 -44 3 -33 10 22 14
76 12 113 -4z m-2501 -363 c164 -164 298 -301 298 -305 0 -5 -10 -8 -22 -8
-16 0 -106 84 -308 285 -258 256 -290 285 -319 285 -23 0 -42 -9 -63 -30 -54
-54 -46 -67 210 -322 210 -212 225 -228 196 -228 -26 0 -59 28 -243 214 -117
117 -217 219 -222 227 -15 25 -10 93 10 123 27 41 57 55 116 56 l49 0 298
-297z m2462 287 c57 -21 86 -126 50 -180 -9 -14 -107 -116 -218 -227 -164
-166 -206 -203 -228 -203 -16 0 -28 3 -28 7 0 4 101 109 225 233 232 233 240
244 213 293 -17 32 -39 46 -72 47 -26 0 -70 -39 -316 -285 -233 -232 -291
-285 -313 -285 -15 0 -27 3 -27 8 0 10 571 577 595 591 25 13 86 14 119 1z
m-951 -324 c45 -19 64 -43 98 -126 16 -40 29 -74 29 -76 0 -2 -9 -4 -19 -4
-14 0 -28 19 -50 66 -37 80 -52 79 -22 -1 24 -64 24 -65 12 -65 -5 0 -19 30
-32 68 -14 42 -34 79 -55 100 l-32 32 -416 0 -416 0 -30 -27 c-20 -18 -38 -52
-53 -97 -13 -39 -29 -72 -35 -74 -8 -2 -3 21 12 62 13 36 20 66 15 66 -4 0
-21 -29 -38 -65 -23 -48 -36 -65 -51 -65 -19 0 -19 2 5 68 32 83 52 112 96
134 31 16 76 18 492 18 364 0 464 -3 490 -14z m-787 -57 c10 -11 30 -57 46
-102 25 -75 26 -82 10 -88 -26 -9 -298 -20 -306 -12 -4 4 8 14 26 23 28 13 36
25 55 85 14 42 33 79 48 93 34 29 95 30 121 1z m719 -1 c15 -14 34 -50 48 -92
21 -67 30 -78 71 -91 12 -3 16 -9 10 -15 -11 -11 -286 -1 -305 11 -10 6 -8 25
11 85 32 101 50 124 100 124 26 0 47 -7 65 -22z m-205 -20 c-1 -2 -11 -39 -24
-83 -17 -57 -29 -81 -41 -84 -16 -3 -17 3 -11 54 6 52 5 57 -11 50 -10 -4 -49
-13 -87 -21 -78 -17 -131 -12 -188 17 -44 22 -49 13 -13 -21 33 -31 111 -50
181 -43 51 5 56 4 52 -13 -3 -16 -15 -19 -120 -22 l-117 -3 -11 43 c-6 24 -17
62 -25 86 l-14 42 215 0 c118 0 214 -1 214 -2z"/>
<path d="M3677 5404 c-19 -19 2 -24 104 -24 84 0 110 3 107 13 -5 13 -198 23
-211 11z"/>
<path d="M3670 5241 c0 -14 19 -17 119 -16 66 0 96 4 98 13 4 9 -22 12 -106
12 -61 0 -111 -4 -111 -9z"/>
<path d="M3670 5080 c0 -6 43 -10 110 -10 67 0 110 4 110 10 0 6 -43 10 -110
10 -67 0 -110 -4 -110 -10z"/>
<path d="M3570 4951 c0 -5 52 -14 115 -21 64 -8 122 -18 129 -24 11 -8 17 -71
25 -250 7 -132 14 -242 16 -245 3 -2 5 101 5 230 0 129 3 244 6 256 4 14 -1
28 -15 42 -19 19 -32 21 -151 21 -71 0 -130 -4 -130 -9z"/>
<path d="M3095 4924 c-93 -7 -247 -25 -261 -31 -12 -4 -14 -53 -14 -279 l0
-274 23 -9 c110 -42 581 -45 780 -5 l27 6 0 278 c0 257 -1 279 -17 284 -66 20
-417 39 -538 30z m228 -113 c51 -4 102 -13 114 -20 33 -17 52 -62 68 -158 11
-67 21 -97 49 -139 20 -30 36 -56 36 -59 0 -3 -53 -4 -117 -3 -203 5 -395 -1
-388 -12 3 -5 34 -10 68 -10 34 0 99 -3 145 -7 90 -7 102 -20 36 -40 -39 -11
-39 -11 31 -12 39 -1 110 6 158 15 85 16 111 14 91 -6 -31 -31 -462 -45 -652
-21 -110 14 -129 26 -97 61 15 16 16 41 13 217 l-3 198 39 3 c37 3 96 -13 96
-27 0 -3 7 -14 15 -25 14 -18 15 -18 47 9 47 40 88 56 126 49 18 -3 74 -9 125
-13z"/>
<path d="M3332 4755 c63 -43 94 -140 67 -212 -8 -23 -8 -26 2 -15 7 6 15 40
17 75 3 54 0 67 -24 103 -15 23 -39 49 -54 58 -43 25 -49 19 -8 -9z"/>
<path d="M3171 4732 c-49 -26 -73 -75 -68 -136 4 -41 10 -55 40 -82 48 -44 94
-52 149 -25 53 25 78 65 78 123 0 54 -27 100 -73 121 -45 22 -84 21 -126 -1z
m127 -68 c48 -53 12 -134 -59 -134 -76 0 -115 75 -69 133 34 43 89 43 128 1z"/>
<path d="M3196 4655 c-35 -35 -8 -105 40 -105 72 1 80 111 8 118 -19 2 -38 -3
-48 -13z"/>
<path d="M3090 4690 c-6 -11 -8 -20 -6 -20 3 0 10 9 16 20 6 11 8 20 6 20 -3
0 -10 -9 -16 -20z"/>
<path d="M3066 4628 c-7 -31 -4 -47 15 -85 22 -43 76 -93 102 -93 5 0 -5 10
-23 23 -52 35 -74 72 -80 135 l-6 57 -8 -37z"/>
<path d="M1627 3603 c-2 -5 -8 -26 -12 -48 -8 -48 -24 -79 -83 -168 -37 -56
-49 -67 -66 -63 -63 18 -66 18 -73 0 -4 -12 2 -24 20 -40 l26 -22 -60 -52
c-59 -51 -72 -76 -45 -86 20 -8 53 12 112 68 l52 49 74 -20 c40 -11 97 -23
126 -27 53 -7 53 -7 82 -64 32 -63 54 -90 75 -90 26 0 24 32 -5 89 -28 57 -29
59 -9 64 15 4 20 12 17 29 -2 18 -11 24 -37 28 -33 5 -37 10 -72 95 -21 50
-45 119 -54 155 -9 36 -21 75 -26 88 -8 21 -33 30 -42 15z m49 -231 c17 -48
35 -95 39 -106 7 -17 4 -18 -36 -11 -48 7 -139 34 -139 41 0 2 12 21 28 43 15
21 36 57 46 79 11 23 22 42 25 42 3 0 20 -39 37 -88z"/>
<path d="M3302 3576 c-107 -35 -163 -119 -170 -256 -5 -94 7 -150 41 -201 27
-41 98 -79 146 -79 42 0 118 35 132 61 14 26 29 24 29 -5 0 -27 24 -51 44 -43
11 4 13 27 8 116 -2 61 -2 111 2 111 3 0 15 -6 26 -12 16 -10 23 -10 35 3 42
42 -34 84 -151 84 -88 0 -117 -13 -112 -49 2 -16 9 -20 28 -18 14 2 44 6 68 9
41 5 42 4 42 -23 0 -37 -41 -123 -70 -149 -16 -15 -36 -20 -75 -20 -62 0 -88
18 -116 80 -21 45 -25 148 -9 207 31 111 157 165 284 122 54 -19 80 -8 60 24
-28 44 -160 65 -242 38z"/>
<path d="M4703 3520 c-28 -4 -61 -15 -74 -23 -59 -42 -78 -130 -39 -180 l21
-26 -27 -40 c-40 -61 -30 -70 63 -64 66 5 82 3 96 -11 53 -53 -85 -103 -162
-59 -23 14 -33 15 -42 6 -30 -30 35 -73 108 -73 100 0 163 42 163 109 0 57
-31 76 -122 76 -37 0 -68 1 -68 2 0 1 7 9 16 17 9 9 32 16 55 16 51 0 102 21
123 51 20 30 21 108 0 137 -15 21 -14 22 15 22 24 0 31 4 31 19 0 32 -43 38
-157 21z m56 -76 c12 -15 21 -38 21 -51 0 -35 -42 -73 -83 -73 -49 0 -71 20
-71 65 0 74 90 114 133 59z"/>
<path d="M1960 3495 c-10 -11 -15 -56 -18 -136 -4 -96 -1 -128 13 -165 33 -87
132 -99 200 -24 l19 21 12 -33 c7 -22 17 -33 30 -33 16 0 19 6 17 40 -3 48
-13 282 -13 301 0 17 -24 18 -38 2 -5 -7 -14 -67 -20 -132 -8 -112 -11 -121
-36 -143 -27 -23 -70 -30 -92 -15 -27 18 -37 59 -34 142 6 183 6 184 -11 188
-9 1 -22 -4 -29 -13z"/>
<path d="M2401 3484 c-12 -15 -21 -30 -21 -34 0 -5 -18 -11 -39 -15 -51 -8
-76 -27 -67 -50 5 -14 14 -16 46 -11 l40 6 0 -70 c0 -86 18 -133 59 -154 58
-30 143 -12 128 28 -5 13 -15 15 -44 10 -25 -3 -44 -1 -56 8 -24 18 -37 80
-30 141 l6 49 46 -6 c77 -11 84 -11 88 0 7 20 -26 43 -71 49 -41 6 -44 9 -37
29 18 48 -15 62 -48 20z"/>
<path d="M2670 3488 c-58 -30 -90 -89 -90 -168 1 -127 70 -193 186 -175 55 8
117 59 135 112 16 51 7 147 -18 181 -33 44 -81 72 -127 72 -23 0 -62 -10 -86
-22z m129 -43 c35 -18 56 -67 55 -126 -2 -58 -16 -85 -57 -109 -47 -29 -93
-26 -128 9 -29 29 -35 54 -30 126 6 95 81 142 160 100z"/>
<path d="M4985 3491 c-45 -28 -73 -62 -90 -110 -34 -97 -6 -209 59 -236 64
-27 139 -13 180 33 15 18 16 24 6 37 -17 21 -27 19 -62 -10 -17 -14 -42 -25
-59 -25 -40 0 -79 40 -79 80 0 29 2 30 42 30 60 0 164 20 185 35 22 16 21 86
-2 121 -39 60 -123 81 -180 45z m105 -41 c15 -8 40 -57 40 -81 0 -12 -104 -31
-150 -27 l-40 3 21 43 c30 60 84 86 129 62z"/>
<path d="M3698 3465 c-28 -15 -37 -48 -18 -60 5 -3 23 1 39 10 59 30 106 8
120 -57 l9 -37 -29 14 c-54 29 -129 12 -163 -37 -9 -13 -16 -43 -16 -69 0 -86
72 -137 156 -111 30 9 34 8 34 -9 0 -24 26 -25 39 -1 6 10 16 58 23 106 23
163 -18 255 -119 263 -31 2 -58 -2 -75 -12z m122 -185 c45 -45 11 -120 -53
-120 -50 0 -72 21 -72 70 0 30 6 46 20 56 28 21 82 17 105 -6z"/>
<path d="M3974 3465 c-4 -9 4 -39 16 -67 19 -45 22 -66 19 -152 -3 -85 -2
-101 12 -104 25 -5 42 46 47 140 3 67 9 91 24 107 21 23 48 27 65 10 15 -15
43 -4 43 15 0 21 -39 46 -71 46 -15 0 -41 -11 -57 -25 l-29 -24 -16 34 c-17
36 -43 46 -53 20z"/>
<path d="M4298 3465 c-28 -15 -37 -48 -18 -60 5 -3 23 1 39 10 59 30 106 8
120 -57 l9 -37 -29 14 c-54 29 -129 12 -163 -37 -9 -13 -16 -43 -16 -69 0 -86
72 -137 156 -111 30 9 34 8 34 -9 0 -24 26 -25 39 -1 6 10 16 58 23 106 23
163 -18 255 -119 263 -31 2 -58 -2 -75 -12z m122 -185 c45 -45 11 -120 -53
-120 -50 0 -72 21 -72 70 0 30 6 46 20 56 28 21 82 17 105 -6z"/>
<path d="M790 2834 c17 -4 461 -25 1130 -54 250 -11 504 -23 564 -26 l108 -7
-352 -352 -353 -353 -111 -4 c-146 -6 -217 -33 -314 -123 -208 -193 -216 -499
-17 -695 100 -99 199 -140 341 -140 138 0 245 44 342 141 115 115 165 296 126
454 -4 16 34 60 172 198 97 97 178 177 180 177 2 0 4 -126 4 -280 0 -267 1
-281 20 -300 15 -15 20 -33 20 -75 l0 -55 90 0 90 0 0 55 c0 62 8 67 54 31
194 -147 506 -147 703 0 17 13 36 24 42 24 5 0 11 -24 13 -52 l3 -53 88 -3 87
-3 0 56 c0 42 5 60 20 75 19 19 20 33 20 300 0 154 3 280 8 280 4 0 85 -78
180 -173 l173 -174 -9 -72 c-23 -163 29 -315 146 -423 96 -89 196 -129 325
-129 103 0 193 27 276 82 282 188 281 610 -1 799 -84 56 -169 80 -282 80 l-91
0 -350 350 c-192 192 -347 352 -344 354 3 3 255 17 560 31 996 45 1224 56
1234 60 6 2 -1097 3 -2450 3 -1353 0 -2453 -2 -2445 -4z m2030 -101 c0 -4
-144 -152 -320 -328 -176 -176 -320 -328 -320 -337 0 -59 63 -108 112 -89 13
5 86 73 163 150 77 78 143 141 147 141 5 0 8 -12 8 -28 0 -22 -25 -52 -127
-153 -71 -70 -139 -134 -153 -143 -29 -19 -85 -21 -120 -3 -56 28 -87 116 -59
170 6 12 147 158 312 325 250 250 307 302 329 302 16 0 28 -3 28 -7z m1187
-295 c165 -167 306 -313 312 -325 6 -12 11 -41 11 -64 0 -35 -6 -47 -39 -80
-34 -34 -45 -39 -84 -39 -53 0 -67 10 -239 184 -77 77 -108 115 -108 132 0 13
3 24 7 24 4 0 74 -66 155 -147 136 -136 150 -147 184 -147 46 0 84 40 84 86 0
28 -37 69 -322 355 -292 293 -320 323 -293 323 26 0 71 -41 332 -302z m-897
263 c0 -19 -26 -150 -36 -183 -4 -14 4 -16 73 -11 87 6 186 -13 254 -48 28
-14 40 -16 37 -7 -8 27 -130 78 -215 90 l-83 11 0 84 0 83 83 0 83 0 24 -72
c27 -85 37 -79 16 11 l-15 62 26 -3 c23 -3 28 -11 45 -71 33 -121 95 -221 181
-288 48 -38 50 -39 133 -39 l84 0 0 -400 0 -400 -22 -4 c-13 -3 -57 -7 -98 -8
-70 -3 -79 -6 -125 -42 -88 -68 -164 -98 -263 -102 l-87 -4 72 14 c212 41 395
209 448 413 73 280 -115 578 -415 658 -61 16 -224 19 -285 5 -22 -5 -41 -7
-43 -5 -2 2 8 20 22 42 26 39 57 117 76 191 11 43 30 57 30 23z m-101 -53 c-5
-18 -9 -35 -9 -37 0 -7 -154 -161 -162 -161 -4 0 -8 12 -8 27 0 21 20 48 87
115 48 49 91 88 95 88 3 0 2 -15 -3 -32z m631 -170 c0 -16 -2 -28 -4 -28 -12
0 -159 158 -167 178 -23 60 -5 52 81 -33 70 -70 90 -96 90 -117z m-831 -30
c-1 -22 -3 -26 -6 -13 -3 11 -10 26 -15 33 -8 9 -6 12 6 12 12 0 16 -9 15 -32z
m981 -13 c0 -38 -3 -45 -20 -45 -17 0 -20 7 -20 38 0 41 6 52 27 52 9 0 13
-14 13 -45z m-1113 -41 c-3 -3 -12 -4 -19 -1 -8 3 -5 6 6 6 11 1 17 -2 13 -5z
m644 -14 c126 -23 254 -115 322 -230 73 -125 75 -304 6 -447 -34 -70 -132
-164 -210 -201 -285 -136 -617 41 -662 353 -34 234 114 457 342 517 77 20 128
22 202 8z m-421 -34 c-6 -8 -37 -20 -68 -26 -31 -7 -73 -15 -92 -19 l-35 -7
-16 -144 c-24 -212 -26 -213 -28 -13 -1 147 2 184 14 196 11 12 33 14 97 10
47 -3 94 0 108 5 34 14 34 14 20 -2z m-796 -401 c25 -39 41 -52 95 -77 29 -13
54 -18 75 -14 22 4 27 3 16 -4 -30 -20 -94 -11 -142 19 -68 43 -101 121 -80
191 5 20 8 14 12 -30 3 -31 14 -69 24 -85z m2306 72 c0 -86 -73 -166 -159
-175 -27 -2 -56 0 -64 4 -11 6 0 9 34 10 91 1 172 86 172 181 0 26 4 39 9 31
4 -7 8 -30 8 -51z m-2660 -194 c32 -7 233 -62 236 -65 8 -9 70 -266 63 -262
-5 3 -23 50 -40 104 -17 55 -34 102 -39 105 -4 3 -6 -3 -4 -12 3 -10 16 -63
29 -118 l25 -100 -98 -99 c-102 -104 -106 -116 -9 -33 31 28 59 48 62 45 3 -3
-23 -32 -58 -66 l-64 -61 -89 23 c-198 52 -203 53 -213 94 -5 20 -22 86 -37
145 l-28 108 104 104 c72 72 110 103 120 99 8 -4 26 -9 40 -11z m2568 -41
c-15 -32 -33 -91 -40 -131 -10 -62 -10 -84 4 -149 9 -42 19 -86 23 -97 6 -16
5 -17 -4 -5 -6 8 -21 46 -32 84 -26 81 -22 163 11 246 18 45 55 110 64 110 1
0 -10 -26 -26 -58z m559 -44 c57 -57 103 -110 103 -119 0 -21 -60 -249 -71
-270 -5 -9 -21 -19 -36 -22 -16 -3 -78 -19 -140 -35 l-111 -29 -69 70 c-53 54
-58 63 -26 38 24 -18 45 -36 48 -41 3 -5 20 -19 38 -31 18 -12 -10 20 -60 72
-67 68 -93 101 -93 119 0 14 11 67 25 118 14 51 25 96 25 100 -1 19 -23 -33
-51 -116 -17 -51 -33 -91 -35 -89 -3 2 10 61 28 131 l33 126 40 11 c84 21 191
51 215 59 14 4 27 8 30 9 2 1 51 -45 107 -101z m-2691 9 c25 -54 29 -74 29
-152 0 -64 -5 -104 -19 -138 -10 -27 -20 -47 -21 -45 -2 2 3 30 11 63 25 109
12 220 -37 318 -15 28 -17 38 -7 29 9 -7 28 -40 44 -75z m513 -216 c7 -5 43
-11 81 -14 38 -3 83 -13 100 -22 39 -20 34 -30 -6 -15 -18 7 -57 9 -107 5
-107 -10 -107 -10 -106 134 l2 116 11 -98 c7 -58 17 -101 25 -106z m-1316 62
c-9 -123 32 -245 111 -332 20 -23 20 -23 1 -11 -36 21 -95 111 -112 169 -18
60 -22 153 -10 214 12 58 16 44 10 -40z m3721 -43 c0 -47 -5 -104 -12 -127
-14 -48 -90 -165 -111 -171 -8 -3 0 13 17 34 17 22 44 66 59 99 25 54 28 70
28 172 0 75 3 106 9 95 6 -9 10 -55 10 -102z m-1404 -145 c0 -38 -3 -45 -20
-45 -17 0 -20 7 -20 45 0 38 3 45 20 45 17 0 20 -7 20 -45z m-1006 -30 c3 -9
0 -15 -9 -15 -8 0 -15 7 -15 15 0 8 4 15 9 15 5 0 11 -7 15 -15z"/>
<path d="M3114 2302 c-114 -40 -192 -111 -241 -218 -91 -199 -3 -430 202 -530
54 -26 70 -29 160 -29 94 0 105 2 170 34 308 152 307 579 -2 724 -86 40 -208
48 -289 19z m255 -95 c192 -90 242 -351 95 -502 -125 -129 -321 -133 -449 -8
-61 59 -90 133 -90 228 1 64 5 90 25 130 76 156 265 224 419 152z"/>
<path d="M3314 2170 c104 -41 176 -146 176 -255 0 -65 -20 -119 -67 -183 l-27
-37 37 35 c107 99 109 272 6 379 -35 36 -121 81 -154 80 -11 0 2 -9 29 -19z"/>
<path d="M1613 1719 c-51 -45 -93 -86 -93 -92 0 -17 83 -257 88 -253 2 3 -11
59 -28 127 l-31 122 88 89 c48 48 83 88 78 88 -6 -1 -52 -37 -102 -81z"/>
<path d="M4760 1794 c0 -5 37 -46 82 -91 l81 -82 -27 -108 c-39 -154 -39 -151
-27 -133 5 8 27 68 49 132 l41 117 -77 67 c-42 37 -87 77 -99 88 -13 11 -23
15 -23 10z"/>
</g>
</svg>
